<svg xmlns:xlink="http://www.w3.org/1999/xlink" width="1.455ex" height="2.509ex" style="font-size: 15px; vertical-align: -0.671ex;" viewBox="0 -791.3 626.5 1080.4" role="img" focusable="false" xmlns="http://www.w3.org/2000/svg">
<defs>
<path stroke-width="1" id="E1-MJMATHBI-71" d="M38 159Q38 209 58 260T113 355T205 425T327 452Q338 452 348 451T366 449T382 444T394 440T405 434T414 429T422 423T429 418Q440 429 481 440T533 452Q540 452 545 447T550 437Q550 432 481 152Q410 -130 410 -131T437 -132H452Q479 -132 479 -150Q476 -187 462 -192Q458 -194 451 -194Q447 -194 414 -193T330 -192Q277 -192 249 -193T217 -194Q202 -194 197 -179Q197 -175 201 -159Q206 -139 211 -136T243 -132H283L319 15L307 10Q295 4 270 -2T220 -8Q134 -8 86 37T38 159ZM402 353Q402 358 395 368T369 390T324 401Q301 401 282 394T249 369T226 338T208 297T196 258T186 218Q166 141 166 107Q166 44 229 44Q265 44 294 61T337 95Q341 100 371 222T402 353Z"></path>
<path stroke-width="1" id="E1-MJMAIN-7E" d="M179 251Q164 251 151 245T131 234T111 215L97 227L83 238Q83 239 95 253T121 283T142 304Q165 318 187 318T253 300T320 282Q335 282 348 288T368 299T388 318L402 306L416 295Q375 236 344 222Q330 215 313 215Q292 215 248 233T179 251Z"></path>
</defs>
<g stroke="currentColor" fill="currentColor" stroke-width="0" transform="matrix(1 0 0 -1 0 0)">
 <use xlink:href="#E1-MJMATHBI-71" x="0" y="0"></use>
 <use xlink:href="#E1-MJMAIN-7E" x="126" y="346"></use>
</g>
</svg>